<?xml version="1.0" encoding="UTF-8" standalone="no"?>
<!-- Created with Inkscape (http://www.inkscape.org/) -->

<svg
   xmlns:dc="http://purl.org/dc/elements/1.1/"
   xmlns:cc="http://creativecommons.org/ns#"
   xmlns:rdf="http://www.w3.org/1999/02/22-rdf-syntax-ns#"
   xmlns:svg="http://www.w3.org/2000/svg"
   xmlns="http://www.w3.org/2000/svg"
   xmlns:sodipodi="http://sodipodi.sourceforge.net/DTD/sodipodi-0.dtd"
   xmlns:inkscape="http://www.inkscape.org/namespaces/inkscape"
   width="1900"
   height="1280"
   viewBox="0 0 502.70832 338.66668"
   version="1.1"
   id="svg8"
   inkscape:version="0.92.4 (unknown)"
   sodipodi:docname="portfolio.svg">
  <defs
     id="defs2" />
  <sodipodi:namedview
     id="base"
     pagecolor="#ffffff"
     bordercolor="#666666"
     borderopacity="1.0"
     inkscape:pageopacity="0.0"
     inkscape:pageshadow="2"
     inkscape:zoom="0.35"
     inkscape:cx="740"
     inkscape:cy="862.85714"
     inkscape:document-units="mm"
     inkscape:current-layer="layer1"
     showgrid="false"
     units="px"
     inkscape:showpageshadow="false"
     inkscape:snap-page="true"
     inkscape:window-width="1916"
     inkscape:window-height="1040"
     inkscape:window-x="0"
     inkscape:window-y="18"
     inkscape:window-maximized="0" />
  <metadata
     id="metadata5">
    <rdf:RDF>
      <cc:Work
         rdf:about="">
        <dc:format>image/svg+xml</dc:format>
        <dc:type
           rdf:resource="http://purl.org/dc/dcmitype/StillImage" />
        <dc:title></dc:title>
      </cc:Work>
    </rdf:RDF>
  </metadata>
  <g
     inkscape:label="Layer 1"
     inkscape:groupmode="layer"
     id="layer1"
     transform="translate(0,41.666683)">
    <path
       id="path1569"
       d="m 337.77937,148.2552 5.48686,0.45031 c 8.15426,23.78746 29.67828,41.71627 56.34037,43.90448 26.66209,2.18821 50.82129,-11.99128 62.74489,-34.13091 l 5.48687,0.45032 c 3.57662,0.29354 6.74312,-2.39262 7.03666,-5.96923 l 3.20226,-39.0177 c 0.29354,-3.57662 -2.39262,-6.74312 -5.96923,-7.03666 l -5.48687,-0.45032 C 458.4669,82.668036 436.9429,64.739225 410.28081,62.551012 383.61872,60.3628 359.4595,74.542295 347.53591,96.68192 l -5.48686,-0.450318 c -3.57661,-0.29354 -6.74312,2.392621 -7.03666,5.969238 l -3.20226,39.0177 c -0.29354,3.57661 2.39262,6.74311 5.96924,7.03666 z m 19.19277,-34.43195 c 0.73719,-8.98219 10.07262,-15.540199 20.84312,-14.656242 l 58.52655,4.803392 c 10.77052,0.88396 18.91176,8.87631 18.17457,17.8585 l -0.80056,9.75442 c -1.76792,21.54104 -20.67893,37.58336 -42.21996,35.81545 l -19.50884,-1.60114 C 370.446,164.02972 354.40366,145.1187 356.17158,123.57767 Z m 26.86157,31.66497 6.07807,-14.23135 15.03192,-3.67637 -14.23135,-6.07806 -3.67637,-15.03192 -6.07806,14.23135 -15.03192,3.67636 14.23135,6.07807 z m 57.8328,51.14656 c -12.79619,6.84682 -27.60153,10.25535 -43.12733,8.98111 -15.52579,-1.27423 -29.57729,-7.0511 -41.08588,-15.89266 -27.67116,0.63409 -51.05619,21.83305 -53.37115,50.03959 l -0.32023,3.90178 c -0.88396,10.7705 7.13721,20.22601 17.90771,21.10997 l 32.51474,2.66855 2.13484,-26.01179 c 0.59042,-7.19389 6.87943,-12.5289 14.07333,-11.93848 l 52.0236,4.26969 c 7.19388,0.59041 12.52889,6.87942 11.93847,14.07332 l -2.13484,26.01179 32.51475,2.66855 c 10.77051,0.88396 20.22602,-7.13721 21.10998,-17.90771 l 0.32023,-3.90178 c 2.31497,-28.20654 -17.30075,-52.93466 -44.49822,-58.07193 z m -26.82075,49.59995 c -3.57661,-0.29354 -6.74311,2.39262 -7.03665,5.96923 -0.29355,3.57664 2.39262,6.74313 5.96923,7.03667 3.57664,0.29354 6.74313,-2.39261 7.03667,-5.96925 0.29354,-3.57661 -2.39261,-6.74311 -5.96925,-7.03665 z m -39.0177,-3.20227 c -3.57662,-0.29354 -6.74311,2.39262 -7.03665,5.96924 l -1.60113,19.50885 13.0059,1.06742 1.60113,-19.50885 c 0.29354,-3.57661 -2.39262,-6.74312 -5.96925,-7.03666 z"
       inkscape:connector-curvature="0"
       style="stroke-width:0.40780085;fill:#0e3c6a;fill-opacity:1" />
    <path
       style="opacity:1;fill:#0e3c6a;fill-opacity:1;stroke:none;stroke-width:0.56698751;stroke-miterlimit:4;stroke-dasharray:none;stroke-opacity:1"
       d="m 0,-41.666683 h 450.54762 v 0 c 0,43.2683269 -92.54206,77.282624 -113.39286,46.2523493 C 296.09561,-56.518795 0,90.624983 0,90.624983 Z"
       id="rect815"
       inkscape:connector-curvature="0"
       sodipodi:nodetypes="cccscc" />
    <path
       style="opacity:1;fill:#0e3c6a;fill-opacity:1;stroke:none;stroke-width:0.69902915;stroke-miterlimit:4;stroke-dasharray:none;stroke-opacity:1"
       d="m 241.1488,296.99998 c 0,0 109.57932,-88.42486 178.40477,-48.38095 83.15474,48.38095 83.15474,-30.99405 83.15474,-30.99405 v 79.375 z"
       id="rect822"
       inkscape:connector-curvature="0"
       sodipodi:nodetypes="csccc" />
    <path
       id="path1419"
       d="m 469.18107,-19.599044 h 12.19398 c 0.25903,0 0.469,-0.209965 0.469,-0.468999 v -1.172498 c 0,-0.259034 -0.20997,-0.468999 -0.469,-0.468999 h -12.19398 c -0.25903,0 -0.469,0.209965 -0.469,0.468999 v 1.172498 c 0,0.259034 0.20997,0.468999 0.469,0.468999 z m 0,4.689991 h 12.19398 c 0.25903,0 0.469,-0.209965 0.469,-0.468998 v -1.172498 c 0,-0.259035 -0.20997,-0.469 -0.469,-0.469 h -12.19398 c -0.25903,0 -0.469,0.209965 -0.469,0.469 v 1.172498 c 0,0.259033 0.20997,0.468998 0.469,0.468998 z m 0,4.689993 h 12.19398 c 0.25903,0 0.469,-0.209965 0.469,-0.469 v -1.172498 c 0,-0.259034 -0.20997,-0.468999 -0.469,-0.468999 h -12.19398 c -0.25903,0 -0.469,0.209965 -0.469,0.468999 v 1.172498 c 0,0.259035 0.20997,0.469 0.469,0.469 z"
       inkscape:connector-curvature="0"
       style="stroke-width:0.02931244" />
    <g
       id="g1589"
       transform="translate(-37.041667,33.261905)">
      <g
         id="g1624"
         transform="translate(-3.0238095,9.827381)">
        <g
           transform="translate(-4.0596629,-40.065476)"
           id="g1616">
          <rect
             y="188.89877"
             x="86.934525"
             height="26.458332"
             width="159.22246"
             id="rect1580"
             style="opacity:1;fill:#0e3c6a;fill-opacity:1;stroke:none;stroke-width:0.68486297;stroke-miterlimit:4;stroke-dasharray:none;stroke-opacity:1" />
          <text
             id="text1584"
             y="205.56857"
             x="105.73315"
             style="font-style:normal;font-variant:normal;font-weight:normal;font-stretch:normal;font-size:9.60655689px;line-height:1.25;font-family:'Futura Md BT';-inkscape-font-specification:'Futura Md BT, Normal';font-variant-ligatures:normal;font-variant-caps:normal;font-variant-numeric:normal;font-feature-settings:normal;text-align:start;letter-spacing:0px;word-spacing:0px;writing-mode:lr-tb;text-anchor:start;fill:#ffffff;fill-opacity:1;stroke:none;stroke-width:0.24016391"
             xml:space="preserve"><tspan
               style="font-style:normal;font-variant:normal;font-weight:normal;font-stretch:normal;font-size:9.60655689px;font-family:'Futura Md BT';-inkscape-font-specification:'Futura Md BT, Normal';font-variant-ligatures:normal;font-variant-caps:normal;font-variant-numeric:normal;font-feature-settings:normal;text-align:start;writing-mode:lr-tb;text-anchor:start;fill:#ffffff;stroke-width:0.24016391"
               y="205.56857"
               x="105.73315"
               id="tspan1582"
               sodipodi:role="line">SCROLL DOWN FOR MORE</tspan></text>
        </g>
        <text
           id="text1593"
           y="138.69693"
           x="81.528671"
           style="font-style:normal;font-variant:normal;font-weight:normal;font-stretch:normal;font-size:16.41070175px;line-height:1.25;font-family:'Futura Md BT';-inkscape-font-specification:'Futura Md BT, Normal';font-variant-ligatures:normal;font-variant-caps:normal;font-variant-numeric:normal;font-feature-settings:normal;text-align:start;letter-spacing:0px;word-spacing:0px;writing-mode:lr-tb;text-anchor:start;fill:#000000;fill-opacity:1;stroke:none;stroke-width:0.41026756"
           xml:space="preserve"><tspan
             style="font-style:normal;font-variant:normal;font-weight:normal;font-stretch:normal;font-size:16.41070175px;font-family:'Futura Md BT';-inkscape-font-specification:'Futura Md BT, Normal';font-variant-ligatures:normal;font-variant-caps:normal;font-variant-numeric:normal;font-feature-settings:normal;text-align:start;writing-mode:lr-tb;text-anchor:start;fill:#000000;stroke-width:0.41026756"
             y="138.69693"
             x="81.528671"
             id="tspan1591"
             sodipodi:role="line">Do you have what it takes?</tspan></text>
      </g>
    </g>
    <g
       aria-label="ASTRONAUT TRAINING CENTRE"
       transform="matrix(0.26458333,0,0,0.26458333,2.2678571,-60.250924)"
       style="font-style:normal;font-variant:normal;font-weight:bold;font-stretch:normal;font-size:40px;line-height:0.89999998;font-family:Futura-Black;-inkscape-font-specification:'Futura-Black, Bold';font-variant-ligatures:normal;font-variant-caps:normal;font-variant-numeric:normal;font-feature-settings:normal;text-align:start;letter-spacing:0px;word-spacing:0px;writing-mode:lr-tb;text-anchor:start;fill:#ffffff;fill-opacity:1;stroke:none"
       id="flowRoot825">
      <path
         d="m 97.654947,180.85052 h 7.984373 l -1.64062,-6.05209 q -1.23959,-4.70312 -1.64063,-7.10937 -0.40104,-2.15104 -0.51041,-4.63021 h -0.40105 q -0.10937,2.47917 -0.51041,4.63021 -0.51042,2.95312 -1.640628,7.10937 z m -25.447916,19.39583 19.03125,-53.375 h 21.364579 l 18.66667,53.375 h -20.63542 l -1.71354,-6.70834 H 94.446614 l -1.640625,6.70834 z"
         style="font-style:normal;font-variant:normal;font-weight:bold;font-stretch:normal;font-size:74.66666412px;line-height:0.89999998;font-family:Futura-Black;-inkscape-font-specification:'Futura-Black, Bold';font-variant-ligatures:normal;font-variant-caps:normal;font-variant-numeric:normal;font-feature-settings:normal;text-align:start;writing-mode:lr-tb;text-anchor:start;fill:#ffffff"
         id="path2840" />
      <path
         d="m 129.41015,195.68906 6.125,-14.94792 q 4.33855,2.95313 7.40104,4.19271 3.17188,1.34896 5.97917,1.34896 2.04167,0 3.13542,-0.72917 1.09375,-0.80208 1.09375,-2.04167 0,-2.1875 -5.65104,-3.42708 -1.20313,-0.21875 -2.84375,-0.58333 -5.97917,-1.49479 -9.1875,-5.17709 -3.13542,-3.68229 -3.13542,-9.26041 0,-8.49479 6.19792,-14.03646 6.16145,-5.35938 16.11458,-5.35938 4.73958,0 9.04167,1.20313 4.55729,1.20312 8.96875,3.64583 l -5.83334,13.96354 q -2.91666,-2.11458 -5.50521,-3.13541 -3.0625,-1.05729 -5.46875,-1.05729 -2.0052,0 -3.13541,0.6927 -1.05729,0.69271 -1.05729,1.85938 0,2.29687 8.02083,3.9375 1.05729,0.32812 1.93229,0.47396 5.50521,1.20312 8.64063,5.06771 3.20833,3.7552 3.20833,9.26041 0,8.89583 -6.41667,14.47396 -3.20833,2.84375 -7.40104,4.22917 -4.19271,1.38541 -9.22396,1.38541 -5.14062,0 -10.46354,-1.49479 -5.32291,-1.49479 -10.53646,-4.48437 z"
         style="font-style:normal;font-variant:normal;font-weight:bold;font-stretch:normal;font-size:74.66666412px;line-height:0.89999998;font-family:Futura-Black;-inkscape-font-specification:'Futura-Black, Bold';font-variant-ligatures:normal;font-variant-caps:normal;font-variant-numeric:normal;font-feature-settings:normal;text-align:start;writing-mode:lr-tb;text-anchor:start;fill:#ffffff"
         id="path2842" />
      <path
         d="m 186.79557,200.24635 v -35.91146 h -10.68229 v -17.46354 h 40.54167 v 17.46354 h -10.68229 v 35.91146 z"
         style="font-style:normal;font-variant:normal;font-weight:bold;font-stretch:normal;font-size:74.66666412px;line-height:0.89999998;font-family:Futura-Black;-inkscape-font-specification:'Futura-Black, Bold';font-variant-ligatures:normal;font-variant-caps:normal;font-variant-numeric:normal;font-feature-settings:normal;text-align:start;writing-mode:lr-tb;text-anchor:start;fill:#ffffff"
         id="path2844" />
      <path
         d="m 241.73828,160.61614 v 10.42708 h 2.98958 q 2.80729,0 4.26562,-1.34895 1.42188,-1.27605 1.42188,-3.79167 0,-2.55208 -1.42188,-3.97396 -1.45833,-1.3125 -4.26562,-1.3125 z m -18.8125,39.63021 v -53.375 h 24.13541 q 10.53646,0 16.04167,4.63021 5.54166,4.66666 5.54166,13.34375 0,5.6875 -2.77083,9.33333 -2.84375,3.79167 -7.54687,4.33854 l 14.2552,21.72917 h -21.51041 l -9.33333,-17.60938 v 17.60938 z"
         style="font-style:normal;font-variant:normal;font-weight:bold;font-stretch:normal;font-size:74.66666412px;line-height:0.89999998;font-family:Futura-Black;-inkscape-font-specification:'Futura-Black, Bold';font-variant-ligatures:normal;font-variant-caps:normal;font-variant-numeric:normal;font-feature-settings:normal;text-align:start;writing-mode:lr-tb;text-anchor:start;fill:#ffffff"
         id="path2846" />
      <path
         d="m 303.09764,183.73072 q 4.04688,0 6.52605,-2.73437 2.4427,-2.80729 2.4427,-7.32813 0,-4.6302 -2.4427,-7.40104 -2.51563,-2.77083 -6.52605,-2.77083 -4.01041,0 -6.56249,2.77083 -2.44271,2.77084 -2.44271,7.40104 0,4.52084 2.44271,7.32813 2.51562,2.73437 6.56249,2.73437 z m 28.54688,-10.0625 q 0,5.90625 -2.11458,10.90105 -2.1875,5.17708 -6.05209,9.04166 -3.9375,3.82813 -9.22396,5.97917 -5.28645,2.07812 -11.15625,2.07812 -5.9427,0 -11.1927,-2.07812 -5.10417,-2.07813 -9.26042,-6.05209 -4.01042,-4.04687 -6.05208,-8.89583 -2.00521,-4.99479 -2.00521,-10.97396 0,-5.97916 2.00521,-10.97395 2.11458,-4.95834 6.05208,-8.96875 4.01042,-3.90105 9.1875,-6.05209 5.21354,-2.00521 11.26562,-2.00521 5.97917,0 11.22917,2.00521 5.21354,2.11459 9.26042,6.05209 3.86458,3.9375 6.01562,8.96875 2.04167,5.0677 2.04167,10.97395 z"
         style="font-style:normal;font-variant:normal;font-weight:bold;font-stretch:normal;font-size:74.66666412px;line-height:0.89999998;font-family:Futura-Black;-inkscape-font-specification:'Futura-Black, Bold';font-variant-ligatures:normal;font-variant-caps:normal;font-variant-numeric:normal;font-feature-settings:normal;text-align:start;writing-mode:lr-tb;text-anchor:start;fill:#ffffff"
         id="path2848" />
      <path
         d="m 339.73826,200.24635 v -53.375 h 18.8125 l 16.58854,27.92708 q -0.32812,-1.93229 -0.4375,-4.11979 -0.14583,-2.98958 -0.14583,-5.90625 v -17.90104 h 18.48437 v 53.375 h -18.95833 l -16.40625,-27.70833 q 0.32813,1.78645 0.4375,3.82812 0.14583,2.84375 0.14583,4.63021 v 19.25 z"
         style="font-style:normal;font-variant:normal;font-weight:bold;font-stretch:normal;font-size:74.66666412px;line-height:0.89999998;font-family:Futura-Black;-inkscape-font-specification:'Futura-Black, Bold';font-variant-ligatures:normal;font-variant-caps:normal;font-variant-numeric:normal;font-feature-settings:normal;text-align:start;writing-mode:lr-tb;text-anchor:start;fill:#ffffff"
         id="path2850" />
      <path
         d="m 421.2591,180.85052 h 7.98438 l -1.64063,-6.05209 q -1.23958,-4.70312 -1.64062,-7.10937 -0.40104,-2.15104 -0.51042,-4.63021 h -0.40104 q -0.10937,2.47917 -0.51042,4.63021 -0.51041,2.95312 -1.64062,7.10937 z m -25.44791,19.39583 19.03125,-53.375 h 21.36458 l 18.66667,53.375 h -20.63542 l -1.71354,-6.70834 h -14.47396 l -1.64062,6.70834 z"
         style="font-style:normal;font-variant:normal;font-weight:bold;font-stretch:normal;font-size:74.66666412px;line-height:0.89999998;font-family:Futura-Black;-inkscape-font-specification:'Futura-Black, Bold';font-variant-ligatures:normal;font-variant-caps:normal;font-variant-numeric:normal;font-feature-settings:normal;text-align:start;writing-mode:lr-tb;text-anchor:start;fill:#ffffff"
         id="path2852" />
      <path
         d="m 457.27993,175.81927 v -28.94792 h 19.17708 v 29.09375 q 0,5.14062 1.20313,6.96354 1.20312,1.93229 4.11979,1.93229 2.8802,0 4.08333,-1.93229 1.27604,-2.04167 1.27604,-6.96354 v -29.09375 h 19.17708 v 28.94792 q 0,5.83333 -0.72916,9.33333 -0.80209,3.86458 -2.40625,6.19791 -3.24479,5.03125 -8.71354,7.6198 -5.6875,2.69791 -12.6875,2.69791 -7.03646,0 -12.72396,-2.69791 -5.46875,-2.58855 -8.71354,-7.6198 -1.49479,-2.33333 -2.33334,-6.12499 -0.72916,-3.5 -0.72916,-9.40625 z"
         style="font-style:normal;font-variant:normal;font-weight:bold;font-stretch:normal;font-size:74.66666412px;line-height:0.89999998;font-family:Futura-Black;-inkscape-font-specification:'Futura-Black, Bold';font-variant-ligatures:normal;font-variant-caps:normal;font-variant-numeric:normal;font-feature-settings:normal;text-align:start;writing-mode:lr-tb;text-anchor:start;fill:#ffffff"
         id="path2854" />
      <path
         d="m 523.23307,200.24635 v -35.91146 h -10.68229 v -17.46354 h 40.54167 v 17.46354 h -10.68229 v 35.91146 z"
         style="font-style:normal;font-variant:normal;font-weight:bold;font-stretch:normal;font-size:74.66666412px;line-height:0.89999998;font-family:Futura-Black;-inkscape-font-specification:'Futura-Black, Bold';font-variant-ligatures:normal;font-variant-caps:normal;font-variant-numeric:normal;font-feature-settings:normal;text-align:start;writing-mode:lr-tb;text-anchor:start;fill:#ffffff"
         id="path2856" />
      <path
         d="M 86.170573,267.44634 V 231.53489 H 75.488281 v -17.46354 h 40.541669 v 17.46354 h -10.68229 v 35.91145 z"
         style="font-style:normal;font-variant:normal;font-weight:bold;font-stretch:normal;font-size:74.66666412px;line-height:0.89999998;font-family:Futura-Black;-inkscape-font-specification:'Futura-Black, Bold';font-variant-ligatures:normal;font-variant-caps:normal;font-variant-numeric:normal;font-feature-settings:normal;text-align:start;writing-mode:lr-tb;text-anchor:start;fill:#ffffff"
         id="path2858" />
      <path
         d="m 141.11328,227.81614 v 10.42708 h 2.98958 q 2.80729,0 4.26563,-1.34896 1.42187,-1.27604 1.42187,-3.79166 0,-2.55209 -1.42187,-3.97396 -1.45834,-1.3125 -4.26563,-1.3125 z m -18.8125,39.6302 v -53.37499 h 24.13542 q 10.53645,0 16.04166,4.6302 5.54167,4.66667 5.54167,13.34375 0,5.6875 -2.77083,9.33334 -2.84375,3.79166 -7.54688,4.33854 l 14.25521,21.72916 h -21.51042 l -9.33333,-17.60937 v 17.60937 z"
         style="font-style:normal;font-variant:normal;font-weight:bold;font-stretch:normal;font-size:74.66666412px;line-height:0.89999998;font-family:Futura-Black;-inkscape-font-specification:'Futura-Black, Bold';font-variant-ligatures:normal;font-variant-caps:normal;font-variant-numeric:normal;font-feature-settings:normal;text-align:start;writing-mode:lr-tb;text-anchor:start;fill:#ffffff"
         id="path2860" />
      <path
         d="m 194.19661,248.05051 h 7.98438 l -1.64063,-6.05208 q -1.23958,-4.70313 -1.64062,-7.10938 -0.40105,-2.15104 -0.51042,-4.6302 h -0.40104 q -0.10938,2.47916 -0.51042,4.6302 -0.51042,2.95313 -1.64062,7.10938 z m -25.44791,19.39583 19.03124,-53.37499 h 21.36459 l 18.66666,53.37499 h -20.63541 l -1.71354,-6.70833 h -14.47396 l -1.64063,6.70833 z"
         style="font-style:normal;font-variant:normal;font-weight:bold;font-stretch:normal;font-size:74.66666412px;line-height:0.89999998;font-family:Futura-Black;-inkscape-font-specification:'Futura-Black, Bold';font-variant-ligatures:normal;font-variant-caps:normal;font-variant-numeric:normal;font-feature-settings:normal;text-align:start;writing-mode:lr-tb;text-anchor:start;fill:#ffffff"
         id="path2862" />
      <path
         d="m 231.16536,267.44634 v -53.37499 h 19.50521 v 53.37499 z"
         style="font-style:normal;font-variant:normal;font-weight:bold;font-stretch:normal;font-size:74.66666412px;line-height:0.89999998;font-family:Futura-Black;-inkscape-font-specification:'Futura-Black, Bold';font-variant-ligatures:normal;font-variant-caps:normal;font-variant-numeric:normal;font-feature-settings:normal;text-align:start;writing-mode:lr-tb;text-anchor:start;fill:#ffffff"
         id="path2864" />
      <path
         d="m 260.98828,267.44634 v -53.37499 h 18.8125 l 16.58854,27.92708 q -0.32813,-1.93229 -0.4375,-4.11979 -0.14584,-2.98959 -0.14584,-5.90625 v -17.90104 h 18.48438 v 53.37499 h -18.95834 l -16.40624,-27.70833 q 0.32812,1.78646 0.4375,3.82813 0.14583,2.84375 0.14583,4.63021 v 19.24999 z"
         style="font-style:normal;font-variant:normal;font-weight:bold;font-stretch:normal;font-size:74.66666412px;line-height:0.89999998;font-family:Futura-Black;-inkscape-font-specification:'Futura-Black, Bold';font-variant-ligatures:normal;font-variant-caps:normal;font-variant-numeric:normal;font-feature-settings:normal;text-align:start;writing-mode:lr-tb;text-anchor:start;fill:#ffffff"
         id="path2866" />
      <path
         d="m 324.49869,267.44634 v -53.37499 h 19.50521 v 53.37499 z"
         style="font-style:normal;font-variant:normal;font-weight:bold;font-stretch:normal;font-size:74.66666412px;line-height:0.89999998;font-family:Futura-Black;-inkscape-font-specification:'Futura-Black, Bold';font-variant-ligatures:normal;font-variant-caps:normal;font-variant-numeric:normal;font-feature-settings:normal;text-align:start;writing-mode:lr-tb;text-anchor:start;fill:#ffffff"
         id="path2868" />
      <path
         d="m 354.3216,267.44634 v -53.37499 h 18.8125 l 16.58854,27.92708 q -0.32812,-1.93229 -0.4375,-4.11979 -0.14583,-2.98959 -0.14583,-5.90625 v -17.90104 h 18.48438 v 53.37499 H 388.66535 L 372.2591,239.73801 q 0.32813,1.78646 0.4375,3.82813 0.14584,2.84375 0.14584,4.63021 v 19.24999 z"
         style="font-style:normal;font-variant:normal;font-weight:bold;font-stretch:normal;font-size:74.66666412px;line-height:0.89999998;font-family:Futura-Black;-inkscape-font-specification:'Futura-Black, Bold';font-variant-ligatures:normal;font-variant-caps:normal;font-variant-numeric:normal;font-feature-settings:normal;text-align:start;writing-mode:lr-tb;text-anchor:start;fill:#ffffff"
         id="path2870" />
      <path
         d="m 451.44661,248.34218 h -8.34895 v -12.54167 h 29.49479 q 0.0729,1.09375 0.0729,1.53125 0.0365,0.4375 0.0729,0.91146 v 1.42188 q 0,4.6302 -0.91146,8.38541 -0.72917,3.53646 -2.51562,6.70834 -4.08334,6.89062 -10.53646,10.46354 -6.38021,3.64583 -14.65625,3.64583 -5.90625,0 -11.26563,-2.00521 -4.99479,-1.96875 -9.1875,-5.97916 -3.9375,-4.01042 -6.05208,-8.96875 -2.00521,-4.9948 -2.00521,-11.04688 0,-6.16146 2.07813,-11.04687 1.96875,-4.92188 5.97916,-8.96875 3.79167,-3.79167 9.1875,-5.97917 5.21355,-2.00521 11.26563,-2.00521 8.16666,0 14.58333,3.57292 6.48958,3.68229 10.42708,10.53646 l -17.09895,6.34375 q -1.34896,-2.29688 -3.28125,-3.28125 -1.82292,-1.13021 -4.30209,-1.13021 -4.26562,0 -6.8177,3.20833 -2.51563,3.20833 -2.51563,8.75 0,5.76042 2.51563,8.75 2.58854,3.13542 7.2552,3.13542 2.69792,0 4.55729,-1.13021 1.71355,-1.3125 2.00521,-3.28125 z"
         style="font-style:normal;font-variant:normal;font-weight:bold;font-stretch:normal;font-size:74.66666412px;line-height:0.89999998;font-family:Futura-Black;-inkscape-font-specification:'Futura-Black, Bold';font-variant-ligatures:normal;font-variant-caps:normal;font-variant-numeric:normal;font-feature-settings:normal;text-align:start;writing-mode:lr-tb;text-anchor:start;fill:#ffffff"
         id="path2872" />
      <path
         d="m 118.54557,302.45363 q -2.47917,-2.47916 -5.35937,-3.71875 -2.84375,-1.27604 -5.76042,-1.27604 -4.70312,0 -7.546875,2.91667 -2.880208,2.88021 -2.880208,7.69271 0,4.8125 2.734375,7.58333 2.734378,2.73438 7.328128,2.73438 2.73437,0 5.6875,-1.20313 3.0625,-1.38542 6.19791,-3.75521 l -0.61979,20.08854 q -3.35417,1.34896 -6.27083,1.85938 -3.02604,0.69271 -6.27083,0.69271 -3.90105,0 -7.54688,-0.91146 -3.499999,-0.76563 -6.489583,-2.44271 -7.109374,-4.19271 -10.682291,-10.31771 -3.645833,-6.27083 -3.645833,-14.32812 0,-6.16146 2.078125,-11.04688 1.96875,-4.95833 5.979166,-9.04166 3.973958,-3.97396 9.1875,-5.97917 5.213541,-2.00521 11.338546,-2.00521 3.17187,0 6.45312,0.65625 3.20833,0.72917 6.08854,2.04167 z"
         style="font-style:normal;font-variant:normal;font-weight:bold;font-stretch:normal;font-size:74.66666412px;line-height:0.89999998;font-family:Futura-Black;-inkscape-font-specification:'Futura-Black, Bold';font-variant-ligatures:normal;font-variant-caps:normal;font-variant-numeric:normal;font-feature-settings:normal;text-align:start;writing-mode:lr-tb;text-anchor:start;fill:#ffffff"
         id="path2874" />
      <path
         d="m 126.96745,334.64634 v -53.375 h 35.6927 v 14.47396 h -16.8802 v 5.14063 h 15.3125 v 13.67187 h -15.3125 v 5.61458 h 17.3177 v 14.47396 z"
         style="font-style:normal;font-variant:normal;font-weight:bold;font-stretch:normal;font-size:74.66666412px;line-height:0.89999998;font-family:Futura-Black;-inkscape-font-specification:'Futura-Black, Bold';font-variant-ligatures:normal;font-variant-caps:normal;font-variant-numeric:normal;font-feature-settings:normal;text-align:start;writing-mode:lr-tb;text-anchor:start;fill:#ffffff"
         id="path2876" />
      <path
         d="m 170.86328,334.64634 v -53.375 h 18.8125 l 16.58854,27.92709 q -0.32813,-1.9323 -0.4375,-4.1198 -0.14584,-2.98958 -0.14584,-5.90625 v -17.90104 h 18.48438 v 53.375 h -18.95834 l -16.40624,-27.70833 q 0.32812,1.78646 0.4375,3.82812 0.14583,2.84375 0.14583,4.63021 v 19.25 z"
         style="font-style:normal;font-variant:normal;font-weight:bold;font-stretch:normal;font-size:74.66666412px;line-height:0.89999998;font-family:Futura-Black;-inkscape-font-specification:'Futura-Black, Bold';font-variant-ligatures:normal;font-variant-caps:normal;font-variant-numeric:normal;font-feature-settings:normal;text-align:start;writing-mode:lr-tb;text-anchor:start;fill:#ffffff"
         id="path2878" />
      <path
         d="m 240.89973,334.64634 v -35.91146 h -10.68229 v -17.46354 h 40.54166 v 17.46354 h -10.68229 v 35.91146 z"
         style="font-style:normal;font-variant:normal;font-weight:bold;font-stretch:normal;font-size:74.66666412px;line-height:0.89999998;font-family:Futura-Black;-inkscape-font-specification:'Futura-Black, Bold';font-variant-ligatures:normal;font-variant-caps:normal;font-variant-numeric:normal;font-feature-settings:normal;text-align:start;writing-mode:lr-tb;text-anchor:start;fill:#ffffff"
         id="path2880" />
      <path
         d="m 295.84245,295.01613 v 10.42709 h 2.98958 q 2.80729,0 4.26563,-1.34896 1.42187,-1.27604 1.42187,-3.79167 0,-2.55208 -1.42187,-3.97396 -1.45834,-1.3125 -4.26563,-1.3125 z m -18.8125,39.63021 v -53.375 h 24.13541 q 10.53646,0 16.04167,4.63021 5.54167,4.66667 5.54167,13.34375 0,5.6875 -2.77084,9.33333 -2.84375,3.79167 -7.54687,4.33855 l 14.25521,21.72916 h -21.51042 l -9.33333,-17.60937 v 17.60937 z"
         style="font-style:normal;font-variant:normal;font-weight:bold;font-stretch:normal;font-size:74.66666412px;line-height:0.89999998;font-family:Futura-Black;-inkscape-font-specification:'Futura-Black, Bold';font-variant-ligatures:normal;font-variant-caps:normal;font-variant-numeric:normal;font-feature-settings:normal;text-align:start;writing-mode:lr-tb;text-anchor:start;fill:#ffffff"
         id="path2882" />
      <path
         d="m 330.55078,334.64634 v -53.375 h 35.6927 v 14.47396 h -16.8802 v 5.14063 h 15.31249 v 13.67187 h -15.31249 v 5.61458 h 17.3177 v 14.47396 z"
         style="font-style:normal;font-variant:normal;font-weight:bold;font-stretch:normal;font-size:74.66666412px;line-height:0.89999998;font-family:Futura-Black;-inkscape-font-specification:'Futura-Black, Bold';font-variant-ligatures:normal;font-variant-caps:normal;font-variant-numeric:normal;font-feature-settings:normal;text-align:start;writing-mode:lr-tb;text-anchor:start;fill:#ffffff"
         id="path2884" />
    </g>
  </g>
</svg>
